<?xml version="1.0" encoding="UTF-8"?>
<!DOCTYPE svg PUBLIC "-//W3C//DTD SVG 1.1//EN" "http://www.w3.org/Graphics/SVG/1.1/DTD/svg11.dtd">
<svg xmlns="http://www.w3.org/2000/svg" xmlns:xlink="http://www.w3.org/1999/xlink" width="494px" height="563px" version="1.1" content="%3Cmxfile%20userAgent%3D%22Mozilla%2F5.0%20(Macintosh%3B%20Intel%20Mac%20OS%20X%2010_11_1)%20AppleWebKit%2F537.36%20(KHTML%2C%20like%20Gecko)%20Chrome%2F46.0.2490.80%20Safari%2F537.36%22%20type%3D%22device%22%3E%3Cdiagram%3E7VhPb%2BI%2BEP00uSISJ%2Fw5thS2lz1x2P0d3cQkVp04ckyB36evJx4nzlLoVt2l0iogAX5jj%2B335g2IgKzK4zdF6%2BK7zJgIoml2DMhDEEVhuIzNGyAni8zJ3AK54hlO6oEt%2F58hOEV0zzPWDCZqKYXm9RBMZVWxVA%2BwnRTDLWqau%2FQ9sE2pOEd%2F8EwXFl1Esx5%2FZDwv3DbhbGkjTzR9zpXcV7hfEJFd%2B7Dhkrpc7a3I2jCmpDRp4FN5XDEBrDlC7NU3F6LdIRWr8CDXFxBc8ULFHi9qgUaf3M3h8HVA7mlTWxZ3%2FMjM%2BvvzzVw2pjRzMg80oE8ua39bUx9Mlkyrk5nnVi1QYyyNMMHxoec%2BXmLuwuM9meFEijWQd7l7GswHZOICjViH11g5FFyzbU1TGB9MgRtCCl2alA%2Bh%2BbjjQqykkKqdTdYzeAIuK%2B3hm%2FaB%2BIaWXMCFH03JILbFHSFno5V8Zm51JSsTsJOsNQhs0FYayNMuoSrFYPKWgrmgDfA0fVPNrjh%2BlfNcNpSps6YnUxgj5svUgZ%2BRiWAOTxWWGdPiUCpdyFxWVKx71OMHLu0pxo5c%2FwR4AlTB6D8XqczBvBAMIQYJGk2V4z9ctNHsTil5gAPUrLLIxlRDl8x1svhMUlMQ8R08u4hrNbDyskCN3Ku2DlvnYCekKmeObaxnYOeqjIoJqvnLsOV9ykl4mtFJv%2BskF42iyTy5oZlC%2FLoalfqgUlGcmLbgf1ndtgtGKNzYBd%2FrgkjU7bsg%2FggbvfXhLpjMJySZh3G0sK%2F4axuNFjtib2M0%2FBYdjeYbDU3lG82p8gVGI3%2FcaMZnMcjwbxuNEPNzo7dZgqX%2BNT7D3j367D2fYbX%2FdZ%2BZYf%2BXRBvz%2FtEh61c%3D%3C%2Fdiagram%3E%3C%2Fmxfile%3E" style="background-color: rgb(255, 255, 255);"><defs/><g transform="translate(0.5,0.5)"><rect x="1" y="211" width="140" height="140" rx="7" ry="7" fill="#e6e6e6" stroke="none" pointer-events="none"/><path d="M 194 141 L 194 176 L 71 176 L 71 208.76" fill="none" stroke="#4a4a4a" stroke-miterlimit="10" pointer-events="none"/><path d="M 68.5 204.88 L 71 209.88 L 73.5 204.88" fill="none" stroke="#4a4a4a" stroke-miterlimit="10" pointer-events="none"/><rect x="123.75" y="1" width="140" height="140" rx="7" ry="7" fill="#e6e6e6" stroke="none" pointer-events="none"/><rect x="246.5" y="211" width="140" height="140" rx="7" ry="7" fill="#e6e6e6" stroke="none" pointer-events="none"/><path d="M 194 141 L 194 176 L 317 176 L 317 208.76" fill="none" stroke="#4a4a4a" stroke-miterlimit="10" pointer-events="none"/><path d="M 314.5 204.88 L 317 209.88 L 319.5 204.88" fill="none" stroke="#4a4a4a" stroke-miterlimit="10" pointer-events="none"/><rect x="158.36" y="421" width="140" height="140" rx="7" ry="7" fill="#e6e6e6" stroke="none" pointer-events="none"/><path d="M 317 351 L 317 386 L 228 386 L 228 418.76" fill="none" stroke="#4a4a4a" stroke-miterlimit="10" pointer-events="none"/><path d="M 225.5 414.88 L 228 419.88 L 230.5 414.88" fill="none" stroke="#4a4a4a" stroke-miterlimit="10" pointer-events="none"/><rect x="333.71" y="421" width="140" height="140" rx="7" ry="7" fill="#ee6e45" stroke="none" pointer-events="none"/><path d="M 317 351 L 317 386 L 404 386 L 404 418.76" fill="none" stroke="#4a4a4a" stroke-miterlimit="10" pointer-events="none"/><path d="M 401.5 414.88 L 404 419.88 L 406.5 414.88" fill="none" stroke="#4a4a4a" stroke-miterlimit="10" pointer-events="none"/></g></svg>