<?xml version="1.0" encoding="UTF-8"?>
<!DOCTYPE svg PUBLIC "-//W3C//DTD SVG 1.1//EN" "http://www.w3.org/Graphics/SVG/1.1/DTD/svg11.dtd">
<svg xmlns="http://www.w3.org/2000/svg" xmlns:xlink="http://www.w3.org/1999/xlink" width="494px" height="563px" version="1.1" style="background-color: rgb(255, 255, 255);"><defs/><g transform="translate(0.5,0.5)"><rect x="1" y="211" width="140" height="140" rx="7" ry="7" fill="#e6e6e6" stroke="none" pointer-events="none"/><path d="M 194 141 L 194 176 L 71 176 L 71 208.76" fill="none" stroke="#4a4a4a" stroke-miterlimit="10" pointer-events="none"/><path d="M 68.5 204.88 L 71 209.88 L 73.5 204.88" fill="none" stroke="#4a4a4a" stroke-miterlimit="10" pointer-events="none"/><rect x="123.75" y="1" width="140" height="140" rx="7" ry="7" fill="#e6e6e6" stroke="none" pointer-events="none"/><rect x="246.5" y="211" width="140" height="140" rx="7" ry="7" fill="#e6e6e6" stroke="none" pointer-events="none"/><path d="M 194 141 L 194 176 L 317 176 L 317 208.76" fill="none" stroke="#4a4a4a" stroke-miterlimit="10" pointer-events="none"/><path d="M 314.5 204.88 L 317 209.88 L 319.5 204.88" fill="none" stroke="#4a4a4a" stroke-miterlimit="10" pointer-events="none"/><rect x="158.36" y="421" width="140" height="140" rx="7" ry="7" fill="#ee6e45" stroke="none" pointer-events="none"/><path d="M 317 351 L 317 386 L 228 386 L 228 418.76" fill="none" stroke="#4a4a4a" stroke-miterlimit="10" pointer-events="none"/><path d="M 225.5 414.88 L 228 419.88 L 230.5 414.88" fill="none" stroke="#4a4a4a" stroke-miterlimit="10" pointer-events="none"/><rect x="333.71" y="421" width="140" height="140" rx="7" ry="7" fill="#ee6e45" stroke="none" pointer-events="none"/><path d="M 317 351 L 317 386 L 404 386 L 404 418.76" fill="none" stroke="#4a4a4a" stroke-miterlimit="10" pointer-events="none"/><path d="M 401.5 414.88 L 404 419.88 L 406.5 414.88" fill="none" stroke="#4a4a4a" stroke-miterlimit="10" pointer-events="none"/></g></svg>