<?xml version="1.0" encoding="UTF-8"?>
<!DOCTYPE svg PUBLIC "-//W3C//DTD SVG 1.1//EN" "http://www.w3.org/Graphics/SVG/1.1/DTD/svg11.dtd">
<svg xmlns="http://www.w3.org/2000/svg" xmlns:xlink="http://www.w3.org/1999/xlink" width="494px" height="563px" version="1.1" content="%3Cmxfile%20userAgent%3D%22Mozilla%2F5.0%20(Macintosh%3B%20Intel%20Mac%20OS%20X%2010_11_1)%20AppleWebKit%2F537.36%20(KHTML%2C%20like%20Gecko)%20Chrome%2F46.0.2490.80%20Safari%2F537.36%22%20type%3D%22device%22%3E%3Cdiagram%3E7VhNc9owEP01vjLYsvk4JgSaS08c2h4VW9iayJZHFgH666O1VrZcAkkmKelMgRlAb6WV9N6%2BhSEgi3L%2FTdG6%2BC4zJoJonO0DchdEURjOY%2FMGyMEiUzK1QK54hpN6YM1%2FMwTHiG55xprBRC2l0LwegqmsKpbqAbaRYrhFTXOXvgfWKRXH6A%2Be6cKis2jS4%2FeM54XbJpzMbeSBpo%2B5ktsK9wsismkfNlxSl6u9FVkaxpSUJg18KvcLJoA1R4i9%2BupEtDukYhUe5PwCgiueqNjiRS3Q6IO7ORy%2BDsgtbWrL4obvmVl%2Fe7yZy8aUZk7mgQb0wWXtb2vqg8mSaXUw89yqGWqMpREmON713MdzzF14vCcTnEixBvIud0%2BD%2BYBMnKAR6%2FAcK7uCa7auaQrjnSlwQ0ihS5PyLjQfN1yIhRRStbPJcgJPwGWlPXzVPhBf0ZILuPC9KRnE1rgj5Gy0ko%2FMra5kZQJ2krUGgQ3aSgN52iVUpRhMXlIwF7QBnsYvqtkVx59yHsuGMnXW9GQKY8R8mTrwIzIRzOGpwjJjWhxKpQuZy4qKZY96%2FMClPcXYnuufAI%2BAKhj9cpHKHMwLwRBikKDRVDn%2Bw1kbzW6Ukjs4QM0qi6xMNXTJXCeLjyQ1BRHfwLOLuFYDK08L1MitauuwdQ52Qqpy5tjGegZ2zsqomKCaPw1b3oechKe5OumtTnLRKBpNkwuaKcSvq6tS71QqihPTFvwvq8t2wQiFu3bB17ogEnX5Log%2Fwq7eencXTKYjkkzDOJrZV%2Fy1jUaLHbGXMRp%2Bi16N5hsNTeUbzanyBUYjn24047MYZPh3jSbNXbiG7T%2FLdoSYHx%2B96RIs%2FK9xHXby%2F8R1bxXzVQ%2BiE%2F66B82w%2F7uijXn%2F9pDlMw%3D%3D%3C%2Fdiagram%3E%3C%2Fmxfile%3E" style="background-color: rgb(255, 255, 255);"><defs/><g transform="translate(0.5,0.5)"><rect x="1" y="211" width="140" height="140" rx="7" ry="7" fill="#e6e6e6" stroke="none" pointer-events="none"/><path d="M 194 141 L 194 176 L 71 176 L 71 208.76" fill="none" stroke="#4a4a4a" stroke-miterlimit="10" pointer-events="none"/><path d="M 68.5 204.88 L 71 209.88 L 73.5 204.88" fill="none" stroke="#4a4a4a" stroke-miterlimit="10" pointer-events="none"/><rect x="123.75" y="1" width="140" height="140" rx="7" ry="7" fill="#e6e6e6" stroke="none" pointer-events="none"/><rect x="246.5" y="211" width="140" height="140" rx="7" ry="7" fill="#e6e6e6" stroke="none" pointer-events="none"/><path d="M 194 141 L 194 176 L 317 176 L 317 208.76" fill="none" stroke="#4a4a4a" stroke-miterlimit="10" pointer-events="none"/><path d="M 314.5 204.88 L 317 209.88 L 319.5 204.88" fill="none" stroke="#4a4a4a" stroke-miterlimit="10" pointer-events="none"/><rect x="158.36" y="421" width="140" height="140" rx="7" ry="7" fill="#e6e6e6" stroke="none" pointer-events="none"/><path d="M 317 351 L 317 386 L 228 386 L 228 418.76" fill="none" stroke="#4a4a4a" stroke-miterlimit="10" pointer-events="none"/><path d="M 225.5 414.88 L 228 419.88 L 230.5 414.88" fill="none" stroke="#4a4a4a" stroke-miterlimit="10" pointer-events="none"/><rect x="333.71" y="421" width="140" height="140" rx="7" ry="7" fill-opacity="0" fill="#ee6e45" stroke="none" pointer-events="none"/><path d="M 317 351 L 317 386 L 404 386 L 404 418.76" fill="none" stroke="#4a4a4a" stroke-opacity="0" stroke-miterlimit="10" pointer-events="none"/><path d="M 401.5 414.88 L 404 419.88 L 406.5 414.88" fill="none" stroke="#4a4a4a" stroke-opacity="0" stroke-miterlimit="10" pointer-events="none"/></g></svg>