<?xml version="1.0" encoding="UTF-8"?>
<!DOCTYPE svg PUBLIC "-//W3C//DTD SVG 1.1//EN" "http://www.w3.org/Graphics/SVG/1.1/DTD/svg11.dtd">
<svg xmlns="http://www.w3.org/2000/svg" xmlns:xlink="http://www.w3.org/1999/xlink" width="494px" height="563px" version="1.1" content="%3Cmxfile%20userAgent%3D%22Mozilla%2F5.0%20(Macintosh%3B%20Intel%20Mac%20OS%20X%2010_11_1)%20AppleWebKit%2F537.36%20(KHTML%2C%20like%20Gecko)%20Chrome%2F46.0.2490.80%20Safari%2F537.36%22%20type%3D%22device%22%3E%3Cdiagram%3E7VhNc9owEP01vmZiy%2BbjmA9ILj1xaHtUbGFrIlseWQTSXx%2BttLLloSFlktKZjmEG8FtpJb23bzFE5K4%2BPCjaVt9kwUSUXBeHiNxHSRLHy9S8AfLqkNmSOKBUvMBBA7DhvxiC14jueMG60UAtpdC8HYO5bBqW6xG2lWK8REtLn34ANjkVx%2Bh3XujKoYtkNuCPjJeVXyaeLV3kiebPpZK7BteLErK1Dxeuqc9lT0VWhjElpUkDn%2BrDHRPAmifEHX39TrTfpGINbuT0BIIzXqjY4UEd0OlXf3LYfBuRW9q1jsUtPzAz%2FxanMqWZ13REOH3yKVCwcF92KG7qgcmaafVqhvhEC5yCpRFneL0fuE%2BXuFwV8J7NcCDFGij73AMN5gMy8Q6N849Z2Vdcs01Lc7jemwI3hFS6NinvY%2FNxy4W4k0IqO5qsZvAEXDY6wNf2gfia1lzAgR9NySC2wRUhZ6eVfGZ%2BdiMbE3CDnDUILGArDeSxU6jKMZj9TsFS0A54uj6lZqiaq5dj2VCm3pqBTHGKWChTD35GJoI5AlVYYUyLl1LpSpayoWI1oAE%2FcOhAMXbg%2BgfAV0AVXP30kcZsLAjBJcQgQaep8vzHCxstbpSSe9hAyxqHrE019Ml8J0uPJDUFkd7As4%2F4VgMz3WHhhB%2FIYxiRO2UL01oJWyNVJfP02wI%2FllExQTV%2FGS%2FwKSfh4pOT%2FtRJfkaSXM2zC5opxq%2BrSakzlUrSzLSF8Mvqsl0wQeGmLnh2F7TMXaAL%2BvufL%2FSWsVYKMvznXTCbX5FsHqfJwr3i3TYaLfXEXsZoeFc4Ge2k0bAdhUYLftr8ZaPhD8jJaGcajRBzuzHYLMNS%2Fzc%2Bw1Y9%2Bexsn9ny%2F3qfmcvhLwkbC%2F7RIas3%3C%2Fdiagram%3E%3C%2Fmxfile%3E" style="background-color: rgb(255, 255, 255);"><defs/><g transform="translate(0.5,0.5)"><rect x="1" y="211" width="140" height="140" rx="7" ry="7" fill="#e6e6e6" stroke="none" pointer-events="none"/><path d="M 194 141 L 194 176 L 71 176 L 71 208.76" fill="none" stroke="#4a4a4a" stroke-miterlimit="10" pointer-events="none"/><path d="M 68.5 204.88 L 71 209.88 L 73.5 204.88" fill="none" stroke="#4a4a4a" stroke-miterlimit="10" pointer-events="none"/><rect x="123.75" y="1" width="140" height="140" rx="7" ry="7" fill="#e6e6e6" stroke="none" pointer-events="none"/><rect x="246.5" y="211" width="140" height="140" rx="7" ry="7" fill="#e6e6e6" stroke="none" pointer-events="none"/><path d="M 194 141 L 194 176 L 317 176 L 317 208.76" fill="none" stroke="#4a4a4a" stroke-miterlimit="10" pointer-events="none"/><path d="M 314.5 204.88 L 317 209.88 L 319.5 204.88" fill="none" stroke="#4a4a4a" stroke-miterlimit="10" pointer-events="none"/><rect x="158.36" y="421" width="140" height="140" rx="7" ry="7" fill="#ee6e45" stroke="none" pointer-events="none"/><path d="M 317 351 L 317 386 L 228 386 L 228 418.76" fill="none" stroke="#4a4a4a" stroke-miterlimit="10" pointer-events="none"/><path d="M 225.5 414.88 L 228 419.88 L 230.5 414.88" fill="none" stroke="#4a4a4a" stroke-miterlimit="10" pointer-events="none"/><rect x="333.71" y="421" width="140" height="140" rx="7" ry="7" fill="#ee6e45" stroke="none" pointer-events="none"/><path d="M 317 351 L 317 386 L 404 386 L 404 418.76" fill="none" stroke="#4a4a4a" stroke-miterlimit="10" pointer-events="none"/><path d="M 401.5 414.88 L 404 419.88 L 406.5 414.88" fill="none" stroke="#4a4a4a" stroke-miterlimit="10" pointer-events="none"/></g></svg>