<?xml version="1.0" encoding="UTF-8"?>
<!DOCTYPE svg PUBLIC "-//W3C//DTD SVG 1.1//EN" "http://www.w3.org/Graphics/SVG/1.1/DTD/svg11.dtd">
<svg xmlns="http://www.w3.org/2000/svg" xmlns:xlink="http://www.w3.org/1999/xlink" width="494px" height="563px" version="1.1" content="%3Cmxfile%20userAgent%3D%22Mozilla%2F5.0%20(Macintosh%3B%20Intel%20Mac%20OS%20X%2010_11_1)%20AppleWebKit%2F537.36%20(KHTML%2C%20like%20Gecko)%20Chrome%2F46.0.2490.80%20Safari%2F537.36%22%20type%3D%22device%22%3E%3Cdiagram%3E7VhNc9owEP01vjKxZQM55gOSS08c2h4VW9iayJZHFgH666OVVrY8NLRpUjrTMcwAfiutpPf2LYaI3NWHB0Xb6ossmIiSq%2BIQkfsoSeL4OjVvgBwdsiALB5SKFzhoADb8B0PwCtEdL1g3GqilFJq3YzCXTcNyPcK2UoyXaGnp0w%2FAJqfiFP3KC105dJnMB%2FyR8bLyy8Tzaxd5ovlzqeSuwfWihGztw4Vr6nPZU5GVYUxJadLAp%2FpwxwSw5glxR1%2B%2FEe03qViDGzk%2FgeCMFyp2eFAHdProTw6bbyNyS7vWsbjlB2bm3%2BJUpjTzmo4Ip08%2BBQoW7ssOxU09MFkzrY5miE%2B0xClYGnGG1%2FuB%2B%2FQal6sC3rM5DqRYA2Wfe6DBfEAm3qAR6%2FAcK%2FuKa7ZpaQ7Xe1PghpBK1yblfWw%2BbrkQd1JIZUeT1RyegMtGB%2FjaPhBf05oLOPCjKRnENrgi5Oy0ks%2FMz25kYwJukLMGgQVspYE8dgpVOQaznylYCtoBT1fn1AxVc%2FVyKhvK1FszkClOEQtl6sGPyEQwR6AKK4xp8VIqXclSNlSsBjTgBw4dKMYOXH8DeAZUwdV3H2nMxoIQXEIMEnSaKs9%2FvLTR4kYpuYcNtKxxyNpUQ5%2FMd7L0RFJTEOkNPPuIbzUw0x0WTvgLeQwjcqdsYVorYWukqmSeflvgpzIqJqjmL%2BMFPuQkXHxy0u86yc9Iktkiu6CZYvy6%2BkSljFApkPV%2FK5WkmWkL4ZfVZbtggsJNXfDdXdAyd4Eu6O9%2Fpi743i6YLWYkW8RpsnSveLeNRks9sZcxGt4VTkY7azRsR6HRgp82f9loZDLaHxmNEHO7Mdgsw1L%2FNz7DVj357N0%2Bs%2BX%2F%2BT4zl8NfEjYW%2FKNDVq8%3D%3C%2Fdiagram%3E%3C%2Fmxfile%3E" style="background-color: rgb(255, 255, 255);"><defs/><g transform="translate(0.5,0.5)"><rect x="1" y="211" width="140" height="140" rx="7" ry="7" fill="#e6e6e6" stroke="none" pointer-events="none"/><path d="M 194 141 L 194 176 L 71 176 L 71 208.76" fill="none" stroke="#4a4a4a" stroke-miterlimit="10" pointer-events="none"/><path d="M 68.5 204.88 L 71 209.88 L 73.5 204.88" fill="none" stroke="#4a4a4a" stroke-miterlimit="10" pointer-events="none"/><rect x="123.75" y="1" width="140" height="140" rx="7" ry="7" fill="#e6e6e6" stroke="none" pointer-events="none"/><rect x="246.5" y="211" width="140" height="140" rx="7" ry="7" fill="#ee6e45" stroke="none" pointer-events="none"/><path d="M 194 141 L 194 176 L 317 176 L 317 208.76" fill="none" stroke="#4a4a4a" stroke-miterlimit="10" pointer-events="none"/><path d="M 314.5 204.88 L 317 209.88 L 319.5 204.88" fill="none" stroke="#4a4a4a" stroke-miterlimit="10" pointer-events="none"/><rect x="158.36" y="421" width="140" height="140" rx="7" ry="7" fill="#e6e6e6" stroke="none" pointer-events="none"/><path d="M 317 351 L 317 386 L 228 386 L 228 418.76" fill="none" stroke="#4a4a4a" stroke-miterlimit="10" pointer-events="none"/><path d="M 225.5 414.88 L 228 419.88 L 230.5 414.88" fill="none" stroke="#4a4a4a" stroke-miterlimit="10" pointer-events="none"/><rect x="333.71" y="421" width="140" height="140" rx="7" ry="7" fill="#e6e6e6" stroke="none" pointer-events="none"/><path d="M 317 351 L 317 386 L 404 386 L 404 418.76" fill="none" stroke="#4a4a4a" stroke-miterlimit="10" pointer-events="none"/><path d="M 401.5 414.88 L 404 419.88 L 406.5 414.88" fill="none" stroke="#4a4a4a" stroke-miterlimit="10" pointer-events="none"/></g></svg>